<mxfile host="app.diagrams.net" modified="2021-11-03T03:09:47.007Z" agent="5.0 (Windows NT 10.0; Win64; x64) AppleWebKit/537.36 (KHTML, like Gecko) Chrome/95.0.4638.54 Safari/537.36" etag="A7GLEBSOO7GmPfYORWls" version="15.0.6" type="github">
  <diagram name="Page-1" id="aaaa8250-4180-3840-79b5-4cada1eebb92">
    <mxGraphModel dx="1449" dy="684" grid="1" gridSize="10" guides="1" tooltips="1" connect="1" arrows="1" fold="1" page="1" pageScale="1" pageWidth="850" pageHeight="1100" background="none" math="0" shadow="0">
      <root>
        <mxCell id="0" />
        <mxCell id="1" parent="0" />
        <mxCell id="Cpk3ik7vzR9aelOQb2CP-4" value="&lt;font style=&quot;font-size: 18px&quot;&gt;CloudFront&lt;br&gt;goexpert-uat.willd.link&lt;/font&gt;" style="outlineConnect=0;dashed=0;verticalLabelPosition=bottom;verticalAlign=top;align=center;html=1;shape=mxgraph.aws3.cloudfront;fillColor=#F58536;gradientColor=none;" vertex="1" parent="1">
          <mxGeometry x="170" y="330" width="76.5" height="93" as="geometry" />
        </mxCell>
        <mxCell id="Cpk3ik7vzR9aelOQb2CP-5" value="" style="shape=image;html=1;verticalAlign=top;verticalLabelPosition=bottom;labelBackgroundColor=#ffffff;imageAspect=0;aspect=fixed;image=https://cdn3.iconfinder.com/data/icons/free-icons-3/128/cat_3.png" vertex="1" parent="1">
          <mxGeometry x="20" y="335" width="68" height="68" as="geometry" />
        </mxCell>
        <mxCell id="Cpk3ik7vzR9aelOQb2CP-6" value="&lt;font style=&quot;font-size: 18px&quot;&gt;Route 53&lt;/font&gt;" style="outlineConnect=0;dashed=0;verticalLabelPosition=bottom;verticalAlign=top;align=center;html=1;shape=mxgraph.aws3.route_53;fillColor=#F58536;gradientColor=none;" vertex="1" parent="1">
          <mxGeometry x="384.75" y="170" width="70.5" height="85.5" as="geometry" />
        </mxCell>
        <mxCell id="Cpk3ik7vzR9aelOQb2CP-8" value="" style="shape=flexArrow;endArrow=classic;startArrow=classic;html=1;" edge="1" parent="1" source="Cpk3ik7vzR9aelOQb2CP-5">
          <mxGeometry width="100" height="100" relative="1" as="geometry">
            <mxPoint x="70" y="470" as="sourcePoint" />
            <mxPoint x="170" y="370" as="targetPoint" />
          </mxGeometry>
        </mxCell>
        <mxCell id="Cpk3ik7vzR9aelOQb2CP-9" value="" style="edgeStyle=elbowEdgeStyle;elbow=horizontal;endArrow=classic;html=1;" edge="1" parent="1">
          <mxGeometry width="50" height="50" relative="1" as="geometry">
            <mxPoint x="250" y="360" as="sourcePoint" />
            <mxPoint x="390" y="210" as="targetPoint" />
          </mxGeometry>
        </mxCell>
        <mxCell id="Cpk3ik7vzR9aelOQb2CP-10" value="" style="edgeStyle=elbowEdgeStyle;elbow=horizontal;endArrow=classic;html=1;exitX=1;exitY=0.79;exitDx=0;exitDy=0;exitPerimeter=0;" edge="1" parent="1" source="Cpk3ik7vzR9aelOQb2CP-4">
          <mxGeometry width="50" height="50" relative="1" as="geometry">
            <mxPoint x="240" y="430" as="sourcePoint" />
            <mxPoint x="380" y="520" as="targetPoint" />
          </mxGeometry>
        </mxCell>
        <mxCell id="Cpk3ik7vzR9aelOQb2CP-11" value="&lt;span style=&quot;font-size: 18px&quot;&gt;S3 Static Website&lt;/span&gt;&lt;br style=&quot;font-size: 18px&quot;&gt;&lt;span style=&quot;font-size: 18px&quot;&gt;Static files &amp;amp; images&lt;/span&gt;" style="outlineConnect=0;dashed=0;verticalLabelPosition=bottom;verticalAlign=top;align=center;html=1;shape=mxgraph.aws3.bucket_with_objects;fillColor=#E05243;gradientColor=none;" vertex="1" parent="1">
          <mxGeometry x="650" y="315.75" width="60" height="61.5" as="geometry" />
        </mxCell>
        <mxCell id="Cpk3ik7vzR9aelOQb2CP-15" value="&lt;font style=&quot;font-size: 18px&quot;&gt;Certificate Manager&lt;/font&gt;" style="outlineConnect=0;dashed=0;verticalLabelPosition=bottom;verticalAlign=top;align=center;html=1;shape=mxgraph.aws3.certificate_manager_2;fillColor=#759C3E;gradientColor=none;" vertex="1" parent="1">
          <mxGeometry x="384.75" y="490" width="73.5" height="63" as="geometry" />
        </mxCell>
        <mxCell id="Cpk3ik7vzR9aelOQb2CP-17" value="" style="shape=doubleArrow;whiteSpace=wrap;html=1;" vertex="1" parent="1">
          <mxGeometry x="250" y="377.25" width="390" height="10" as="geometry" />
        </mxCell>
      </root>
    </mxGraphModel>
  </diagram>
</mxfile>
